<svg xmlns="http://www.w3.org/2000/svg" width="2400" height="2400.23" viewBox="0 0 2400 2400.23"><defs><style>.cls-1{fill:#007cf7;}.cls-2{opacity:0.2;}.cls-3{fill:#fff;}</style></defs><title>Quantify.Length-Logo</title><g id="Square_Background" data-name="Square Background"><rect class="cls-1" width="2400" height="2400"/></g><g id="Shadow_2" data-name="Shadow 2"><polyline class="cls-2" points="564 1798 1605.44 2400.23 2400 2400 2400 926.85 1836 602 564 1798"/></g><g id="Ruler_30" data-name="Ruler 30"><path class="cls-3" d="M1769.44,640.29l60,103.93-22.52,13-60-103.93-46.76,27,60,103.93-22.52,13-60-103.93-46.77,27,100,173.21-22.51,13-100-173.21-46.77,27,60,103.93-22.52,13-60-103.93-47.19,27.25,60,103.93L1530.23,917l-60-103.93L1423,840.29l100,173.21-22.52,13-100-173.21-46.76,27,60,103.93-22.52,13-60-103.93-46.77,27,60,103.93-22.51,13-60-103.93-46.77,27,100,173.21-22.52,13-100-173.21-46.76,27,60,103.93-22.52,13-60-103.93-46.76,27,60,103.93-22.52,13-60-103.93-46.76,27,100,173.21-22.52,13-100-173.21-46.77,27,60,103.93-22.51,13-60-103.93-46.77,27,60,103.93-22.52,13-60-103.93-46.76,27,100,173.21-22.52,13L777,1213.29l-46.76,27,60,103.93-22.52,13-60-103.93-46.76,27,60,103.93-22.52,13-60-103.93-46.77,27,100,173.21-22.51,13-100-173.21-46.77,27,60,103.93-22.52,13-60-103.93-46.76,27,60,103.93-22.52,13-60-103.93-66.68,38.5,200,346.42,1472.24-850-200-346.42Zm203.38,298.27-86.6,50,36.6-136.6Z"/><rect class="cls-1" x="458.82" y="1398.76" width="26" height="120" transform="translate(-666.17 431.35) rotate(-30)"/><rect class="cls-1" x="666.67" y="1278.76" width="26" height="120" transform="translate(-578.32 519.19) rotate(-30)"/><rect class="cls-1" x="874.51" y="1158.76" width="26" height="120" transform="translate(-490.47 607.04) rotate(-30)"/><rect class="cls-1" x="1082.36" y="1038.76" width="26" height="120" transform="translate(-402.63 694.88) rotate(-30)"/><rect class="cls-1" x="1290.21" y="918.76" width="26" height="120" transform="translate(-314.78 782.73) rotate(-30)"/><rect class="cls-1" x="1498.55" y="798.76" width="25" height="120" transform="translate(-226.94 870.58) rotate(-30)"/><rect class="cls-1" x="528.1" y="1358.76" width="26" height="120" transform="translate(-636.88 460.63) rotate(-30)"/><rect class="cls-1" x="617.38" y="1313.4" width="26" height="200" transform="translate(-622.24 504.55) rotate(-30)"/><rect class="cls-1" x="735.95" y="1238.76" width="26" height="120" transform="translate(-549.04 548.47) rotate(-30)"/><rect class="cls-1" x="825.23" y="1193.4" width="26" height="200" transform="translate(-534.4 592.4) rotate(-30)"/><rect class="cls-1" x="943.79" y="1118.76" width="26" height="120" transform="translate(-461.19 636.32) rotate(-30)"/><rect class="cls-1" x="1033.08" y="1073.4" width="26" height="200" transform="translate(-446.55 680.24) rotate(-30)"/><rect class="cls-1" x="1151.64" y="998.76" width="26" height="120" transform="translate(-373.35 724.17) rotate(-30)"/><rect class="cls-1" x="1240.92" y="953.4" width="26" height="200" transform="translate(-358.7 768.09) rotate(-30)"/><rect class="cls-1" x="1359.49" y="878.76" width="26" height="120" transform="translate(-285.5 812.01) rotate(-30)"/><rect class="cls-1" x="1448.77" y="833.4" width="26" height="200" transform="translate(-270.86 855.94) rotate(-30)"/><rect class="cls-1" x="1567.33" y="758.76" width="26" height="120" transform="translate(-197.65 899.86) rotate(-30)"/><rect class="cls-1" x="1705.9" y="678.76" width="26" height="120" transform="translate(-139.09 958.42) rotate(-30)"/><rect class="cls-1" x="1775.18" y="638.76" width="26" height="120" transform="translate(-109.81 987.71) rotate(-30)"/><rect class="cls-1" x="1656.62" y="713.4" width="26" height="200" transform="translate(-183.01 943.78) rotate(-30)"/><polygon class="cls-1" points="1972.82 938.56 1922.82 851.96 1886.22 988.56 1972.82 938.56"/></g></svg>